<svg width="800" height="800" viewBox="0 0 800 800" xmlns="http://www.w3.org/2000/svg"><title>rain--drizzle</title><path d="M275 750a25 25 0 0 1 -22.35 -36.175l50 -100a25 25 0 1 1 44.7 22.35l-50 100A25 25 0 0 1 275 750"/><path d="M620 228.4a224.85 224.85 0 0 0 -440 0A162.425 162.425 0 0 0 212.5 550h272.025l-31.9 63.825a25 25 0 0 0 44.725 22.35L540.45 550H587.5a162.425 162.425 0 0 0 32.5 -321.6M587.5 500h-375a112.45 112.45 0 0 1 -8.9 -224.525l20.4 -1.6 2.475 -20.3a174.85 174.85 0 0 1 347.075 0l2.475 20.3 20.375 1.6A112.45 112.45 0 0 1 587.5 500"/><path data-name="&amp;lt;Transparent Rectangle&amp;gt;" style="fill:none" d="M0 0h800v800H0z"/></svg>
