<svg xmlns="http://www.w3.org/2000/svg" viewBox="0 0 249.002 249.002" xml:space="preserve"><path d="M185.496 83.545q-2.214 0-4.425.151c-4.725-11.404-12.63-21.543-22.705-28.993-12.166-8.997-26.673-13.752-41.952-13.752-38.455 0-69.74 30.658-69.74 68.343q0 .547.01 1.101C20.669 111.989 0 133.26 0 159.176c0 26.95 22.35 48.875 49.822 48.875h135.674c35.017 0 63.506-27.927 63.506-62.253s-28.489-62.253-63.506-62.253m0 109.506H49.822C30.621 193.051 15 177.855 15 159.176s15.621-33.878 34.822-33.878c1.183 0 2.5.089 4.147.281a7.498 7.498 0 0 0 8.288-8.534 54 54 0 0 1-.583-7.752c0-29.413 24.556-53.343 54.74-53.343 24.021 0 45.589 15.657 52.449 38.076a7.49 7.49 0 0 0 8.415 5.201 50 50 0 0 1 8.217-.683c26.746 0 48.506 21.198 48.506 47.254.001 26.056-21.759 47.253-48.505 47.253"/></svg>
