<svg width="800" height="800" viewBox="0 0 800 800" xmlns="http://www.w3.org/2000/svg"><title>partly-cloudy--night</title><path d="M750 475a124.25 124.25 0 0 0-80.15-116.45 174.275 174.275 0 0 0-325.9-36.05 328.5 328.5 0 0 1 3.275-213A25.375 25.375 0 0 0 324.5 75a25 25 0 0 0-4.375.4 327.4 327.4 0 0 0 45.625 649.525c4.1.15 8.2 0 12.25 0a326 326 0 0 0 257.25-125.95A124.75 124.75 0 0 0 750 475M367.575 674.95a277.375 277.375 0 0 1-80-539.6 380 380 0 0 0 21.1 234.175A124.7 124.7 0 0 0 375 600h191.925a277.5 277.5 0 0 1-188.9 74.95c-3.45 0-6.95.1-10.45 0M625 550H375a74.875 74.875 0 0 1-17.4-147.7l16.45-3.925 2.475-16.75a124.8 124.8 0 0 1 246.95 0l2.475 16.75 16.45 3.925A74.875 74.875 0 0 1 625 550"/><path data-name="&amp;lt;Transparent Rectangle&amp;gt;" d="M0 0h800v800H0z" style="fill:none"/></svg>
