<svg width="800" height="800" viewBox="0 0 800 800" xmlns="http://www.w3.org/2000/svg"><title>ic_fluent_weather_partly_cloudy_day_48_regular</title><path d="M433.25 266.633c105.617 0 165.533 69.917 174.233 154.333h2.667c67.983 0 123.083 54.967 123.083 122.75s-55.1 122.75-123.083 122.75H256.333c-67.95 0-123.05-54.95-123.05-122.75s55.1-122.75 123.067-122.75h2.667c8.767-84.983 68.633-154.333 174.25-154.333m0 41.583c-71.017 0-132.917 57.467-132.917 136.833 0 12.583-10.933 22.45-23.467 22.45h-23.667c-43.233 0-78.283 35.233-78.283 78.7 0 43.45 35.05 78.683 78.283 78.683h360.1c43.233 0 78.283-35.233 78.283-78.683s-35.05-78.7-78.283-78.7h-23.667c-12.533 0-23.467-9.867-23.467-22.433 0-80.4-61.9-136.833-132.917-136.833m-288.167 96.65a20.733 20.733 0 0 1-9.317 26.167l-1.917.9-38.517 16.033A20.733 20.733 0 0 1 77.564 410.6l1.917-.917 38.517-16.017a20.733 20.733 0 0 1 27.083 11.217m216.667-160.7-1.033.333c-15.417 5.033-29.733 11.7-42.833 19.833a91.667 91.667 0 0 0-113.767 132.5 155 155 0 0 0-35.45 18.1 131.383 131.383 0 0 1 193.068-170.782m-268.817 3 2.117.767 38.65 16.483c10.5 4.433 15.533 16.583 11.25 27.15a20.275 20.275 0 0 1-24.667 11.833l-2.1-.75-38.667-16.483a21 21 0 0 1-11.233-27.15c4-9.85 14.7-14.833 24.65-11.833m122.8-102.883.917 1.917 16 38.433a20.833 20.833 0 0 1-37.567 17.867l-.917-1.917-16-38.433a20.833 20.833 0 0 1 37.567-17.867m150.817-9.333c10.017 4.15 15.133 15.167 12.167 25.333l-.767 2.167-16.533 37.933a21.067 21.067 0 0 1-39.667-13.95l.767-2.167 16.5-37.933a21.067 21.067 0 0 1 27.533-11.383" fill="currentColor"/></svg>
